HIERARCHY
ROOT Model
{
	OFFSET 0 0 0
	CHANNELS 6 Xposition Yposition Zposition Zrotation Xrotation Yrotation
	JOINT Model1
	{
		OFFSET 0 -2.25479 2.99384
		CHANNELS 3 Zrotation Xrotation Yrotation
		JOINT Model2
		{
			OFFSET 12.111 0 0
			CHANNELS 3 Zrotation Xrotation Yrotation
			JOINT Model3
			{
				OFFSET 11.5502 0 0
				CHANNELS 3 Zrotation Xrotation Yrotation
				JOINT Model4
				{
					OFFSET 11.781 0 0
					CHANNELS 3 Zrotation Xrotation Yrotation
					JOINT Model5
					{
						OFFSET 20.0601 0 0
						CHANNELS 3 Zrotation Xrotation Yrotation
						JOINT Model6
						{
							OFFSET 11.1962 0 0
							CHANNELS 3 Zrotation Xrotation Yrotation
							End Site
							{
								OFFSET 0 0 0
							}
						}
					}
					JOINT Model7
					{
						OFFSET 10.8223 0.417534 3.51114
						CHANNELS 3 Zrotation Xrotation Yrotation
						JOINT Model8
						{
							OFFSET -6.07944 0 0
							CHANNELS 3 Zrotation Xrotation Yrotation
							JOINT Model9
							{
								OFFSET -0.277405 10.39 -0.051239
								CHANNELS 3 Zrotation Xrotation Yrotation
								JOINT Model10
								{
									OFFSET -3.43909 -0.282043 1.86679
									CHANNELS 3 Zrotation Xrotation Yrotation
									JOINT Model11
									{
										OFFSET 13.0269 0 0
										CHANNELS 3 Zrotation Xrotation Yrotation
										JOINT Model12
										{
											OFFSET 10.8866 0 0
											CHANNELS 3 Zrotation Xrotation Yrotation
											JOINT Model13
											{
												OFFSET 16.7317 0 0
												CHANNELS 3 Zrotation Xrotation Yrotation
												JOINT Model14
												{
													OFFSET 11.8292 0 0
													CHANNELS 3 Zrotation Xrotation Yrotation
													JOINT Model15
													{
														OFFSET 4.82751 -3.73566 -0.836517
														CHANNELS 3 Zrotation Xrotation Yrotation
														JOINT Model16
														{
															OFFSET 3.75311 -0.0582886 -0.0186462
															CHANNELS 3 Zrotation Xrotation Yrotation
															JOINT Model17
															{
																OFFSET 2.88689 0.0192337 0.014801
																CHANNELS 3 Zrotation Xrotation Yrotation
																End Site
																{
																	OFFSET 0 0 0
																}
															}
														}
													}
													JOINT Model18
													{
														OFFSET 9.72197 -3.06458 0.23877
														CHANNELS 3 Zrotation Xrotation Yrotation
														JOINT Model19
														{
															OFFSET 4.61131 0 0
															CHANNELS 3 Zrotation Xrotation Yrotation
															JOINT Model20
															{
																OFFSET 2.8969 -7.62939e-006 0
																CHANNELS 3 Zrotation Xrotation Yrotation
																End Site
																{
																	OFFSET 0 0 0
																}
															}
														}
													}
													JOINT Model21
													{
														OFFSET 9.54431 -0.745064 0.588928
														CHANNELS 3 Zrotation Xrotation Yrotation
														JOINT Model22
														{
															OFFSET 5.33978 0 0
															CHANNELS 3 Zrotation Xrotation Yrotation
															JOINT Model23
															{
																OFFSET 3.03619 7.62939e-006 0
																CHANNELS 3 Zrotation Xrotation Yrotation
																End Site
																{
																	OFFSET 0 0 0
																}
															}
														}
													}
													JOINT Model24
													{
														OFFSET 9.47758 1.51286 0.485107
														CHANNELS 3 Zrotation Xrotation Yrotation
														JOINT Model25
														{
															OFFSET 4.96136 7.62939e-006 0
															CHANNELS 3 Zrotation Xrotation Yrotation
															JOINT Model26
															{
																OFFSET 2.51965 0 0
																CHANNELS 3 Zrotation Xrotation Yrotation
																End Site
																{
																	OFFSET 0 0 0
																}
															}
														}
													}
													JOINT Model27
													{
														OFFSET 9.34247 3.34117 -0.239288
														CHANNELS 3 Zrotation Xrotation Yrotation
														JOINT Model28
														{
															OFFSET 3.28259 2.28882e-005 0
															CHANNELS 3 Zrotation Xrotation Yrotation
															JOINT Model29
															{
																OFFSET 2.1292 0 0
																CHANNELS 3 Zrotation Xrotation Yrotation
																End Site
																{
																	OFFSET 0 0 0
																}
															}
														}
													}
												}
											}
										}
									}
								}
							}
						}
					}
					JOINT Model30
					{
						OFFSET 10.8223 0.4179 -3.51108
						CHANNELS 3 Zrotation Xrotation Yrotation
						JOINT Model31
						{
							OFFSET 6.07944 0 0
							CHANNELS 3 Zrotation Xrotation Yrotation
							JOINT Model32
							{
								OFFSET 0.277405 -10.39 0.051239
								CHANNELS 3 Zrotation Xrotation Yrotation
								JOINT Model33
								{
									OFFSET 3.43909 0.282043 -1.86679
									CHANNELS 3 Zrotation Xrotation Yrotation
									JOINT Model34
									{
										OFFSET -13.0269 0 0
										CHANNELS 3 Zrotation Xrotation Yrotation
										JOINT Model35
										{
											OFFSET -10.8866 0 0
											CHANNELS 3 Zrotation Xrotation Yrotation
											JOINT Model36
											{
												OFFSET -16.7317 0 0
												CHANNELS 3 Zrotation Xrotation Yrotation
												JOINT Model37
												{
													OFFSET -11.8292 0 0
													CHANNELS 3 Zrotation Xrotation Yrotation
													JOINT Model38
													{
														OFFSET -4.82751 3.73566 0.836517
														CHANNELS 3 Zrotation Xrotation Yrotation
														JOINT Model39
														{
															OFFSET -3.75311 0.0582886 0.0186462
															CHANNELS 3 Zrotation Xrotation Yrotation
															JOINT Model40
															{
																OFFSET -2.88687 -0.0192337 -0.014801
																CHANNELS 3 Zrotation Xrotation Yrotation
																End Site
																{
																	OFFSET 0 0 0
																}
															}
														}
													}
													JOINT Model41
													{
														OFFSET -9.72198 3.06459 -0.23877
														CHANNELS 3 Zrotation Xrotation Yrotation
														JOINT Model42
														{
															OFFSET -4.6113 0 0
															CHANNELS 3 Zrotation Xrotation Yrotation
															JOINT Model43
															{
																OFFSET -2.89691 0 0
																CHANNELS 3 Zrotation Xrotation Yrotation
																End Site
																{
																	OFFSET 0 0 0
																}
															}
														}
													}
													JOINT Model44
													{
														OFFSET -9.54431 0.745064 -0.588928
														CHANNELS 3 Zrotation Xrotation Yrotation
														JOINT Model45
														{
															OFFSET -5.33978 0 0
															CHANNELS 3 Zrotation Xrotation Yrotation
															JOINT Model46
															{
																OFFSET -3.03619 -1.52588e-005 0
																CHANNELS 3 Zrotation Xrotation Yrotation
																End Site
																{
																	OFFSET 0 0 0
																}
															}
														}
													}
													JOINT Model47
													{
														OFFSET -9.4776 -1.51286 -0.485107
														CHANNELS 3 Zrotation Xrotation Yrotation
														JOINT Model48
														{
															OFFSET -4.96136 -1.52588e-005 0
															CHANNELS 3 Zrotation Xrotation Yrotation
															JOINT Model49
															{
																OFFSET -2.51965 0 0
																CHANNELS 3 Zrotation Xrotation Yrotation
																End Site
																{
																	OFFSET 0 0 0
																}
															}
														}
													}
													JOINT Model50
													{
														OFFSET -9.34247 -3.34118 0.239288
														CHANNELS 3 Zrotation Xrotation Yrotation
														JOINT Model51
														{
															OFFSET -3.28259 -2.28882e-005 0
															CHANNELS 3 Zrotation Xrotation Yrotation
															JOINT Model52
															{
																OFFSET -2.12921 0 0
																CHANNELS 3 Zrotation Xrotation Yrotation
																End Site
																{
																	OFFSET 0 0 0
																}
															}
														}
													}
												}
											}
										}
									}
								}
							}
						}
					}
				}
			}
		}
	}
	JOINT Model53
	{
		OFFSET 4.38025 -2.14632 -1.11517
		CHANNELS 3 Zrotation Xrotation Yrotation
		JOINT Model54
		{
			OFFSET 0 0 4.94998
			CHANNELS 3 Zrotation Xrotation Yrotation
			JOINT Model55
			{
				OFFSET 18.5642 0 0
				CHANNELS 3 Zrotation Xrotation Yrotation
				JOINT Model56
				{
					OFFSET 21.2884 0 0
					CHANNELS 3 Zrotation Xrotation Yrotation
					JOINT Model57
					{
						OFFSET 30.261 0 0
						CHANNELS 3 Zrotation Xrotation Yrotation
						JOINT Model58
						{
							OFFSET 11.7259 0 0
							CHANNELS 3 Zrotation Xrotation Yrotation
							JOINT Model59
							{
								OFFSET 10.682 0 0
								CHANNELS 3 Zrotation Xrotation Yrotation
								End Site
								{
									OFFSET 0 0 0
								}
							}
						}
					}
				}
			}
		}
	}
	JOINT Model60
	{
		OFFSET -4.38025 -2.14632 -1.11517
		CHANNELS 3 Zrotation Xrotation Yrotation
		JOINT Model61
		{
			OFFSET 0 0 -4.94998
			CHANNELS 3 Zrotation Xrotation Yrotation
			JOINT Model62
			{
				OFFSET -18.5642 0 0
				CHANNELS 3 Zrotation Xrotation Yrotation
				JOINT Model63
				{
					OFFSET -21.2884 0 0
					CHANNELS 3 Zrotation Xrotation Yrotation
					JOINT Model64
					{
						OFFSET -30.261 0 0
						CHANNELS 3 Zrotation Xrotation Yrotation
						JOINT Model65
						{
							OFFSET -11.7259 0 0
							CHANNELS 3 Zrotation Xrotation Yrotation
							JOINT Model66
							{
								OFFSET -10.682 0 0
								CHANNELS 3 Zrotation Xrotation Yrotation
								End Site
								{
									OFFSET 0 0 0
								}
							}
						}
					}
				}
			}
		}
	}
}
MOTION
Frames: 4
Frame Time: 0.033333
-342.619 175.438 -367.038 82.9704 -87.4773 85.5753 -180 4.29621e-031 -90 0.125401 -0.150693 -0.217972 0.250224 -0.302299 -0.435615 0.250224 -0.301862 -0.435617 -2.95707 -1.74831 5.12461 15.6818 -0.56596 -1.67651 120.092 75.5343 58.4939 15.1882 4.17135 -1.4859 -167.277 84.4999 48.8109 174.783 -15.2034 -32.0243 3.89716e-006 12.7592 3.04162e-005 -2.34625 2.19677 2.75863 4.11803e-007 3.3097 3.49578e-007 -1.72386 -0.00133259 0.0885839 -72.0648 39.0385 39.3397 33.3638 2.10362 14.835 0.588947 0.308273 6.35287 -99.6409 81.413 100.35 -0.0181409 2.77903e-005 -0.117315 -0.124139 0.00241114 -0.799296 -79.8382 79.5773 80.5374 -0.000225786 -0.000220911 2.2206e-005 -0.000956239 0.00012291 -2.7305e-005 -66.7416 80.4058 67.2171 -0.000437142 1.59569e-005 -2.73089e-005 -0.000136616 -0.000109276 -5.46255e-005 -6.42159 81.2158 8.01779 -0.000218575 1.69148e-005 0.000212152 0.000901572 -0.000184793 -0.00021855 -59.9282 75.5373 58.5147 8.7405 8.39317 0.76173 -167.277 84.4999 48.8109 178.647 -23.8003 -26.4912 7.21918e-006 -0.489366 2.90636e-005 -1.49167 11.3545 -0.150318 -6.90121e-006 17.0607 3.11563e-006 -3.35529 0.180668 -6.16258 -72.0648 39.0385 39.3397 33.3638 2.10361 14.835 0.588946 0.308273 6.35287 -99.6409 81.413 100.35 -0.0181409 3.00763e-005 -0.117315 -0.124139 0.00241113 -0.799296 -79.8382 79.5773 80.5374 -0.000260651 -0.000218568 2.35697e-005 -0.000956233 0.000122994 -2.73216e-005 -66.7416 80.4058 67.2171 -0.000437137 1.48793e-005 -2.73212e-005 -0.000136611 -0.000109286 -5.46421e-005 -6.42159 81.2158 8.01779 -0.000218572 1.95768e-005 0.000212297 0.000901576 -0.000191248 -0.000218566 0.000811311 0.56661 89.91 -17.9888 -1.97593 -9.06518 9.06638e-007 2.43696 -1.45113e-008 35.3224 -2.32445 -1.904 -1.07521e-007 -3.55537 -1.16826e-007 -68.4006 -3.74089 1.06498 -35.4947 1.26262e-007 2.90729e-007 -180 -0.566579 -90.09 -16.8989 -2.83973 -3.88058 -6.4575e-007 -1.83716 -1.95158e-008 32.5333 -3.34526 -1.28288 2.60277e-007 -5.08056 -3.18753e-007 -65.6601 -3.19957 0.970701 -35.4947 -2.30807e-007 -2.06814e-008 
-342.628 175.415 -367.041 85.0785 -87.4526 87.7163 -180 4.29621e-031 -90 0.154759 -0.199125 -0.178785 0.308893 -0.399168 -0.357035 0.308893 -0.398731 -0.357038 -3.13737 -1.50639 4.73008 15.8109 -0.407569 -1.47989 120.092 75.5343 58.4939 14.6772 3.34611 -1.53058 -167.277 84.4999 48.8109 174.01 -14.7777 -32.3941 3.71398e-006 13.0953 3.04571e-005 -2.13869 2.04351 2.86083 4.1318e-007 3.08436 3.49501e-007 -1.77387 -0.00152033 0.0982129 -72.0648 39.0385 39.3397 33.3638 2.10362 14.835 0.588947 0.308273 6.35287 -99.6409 81.413 100.35 -0.0181409 2.77903e-005 -0.117315 -0.124139 0.00241114 -0.799296 -79.8382 79.5773 80.5374 -0.000225786 -0.000220911 2.2206e-005 -0.000956239 0.00012291 -2.7305e-005 -66.7416 80.4058 67.2171 -0.000437142 1.59569e-005 -2.73089e-005 -0.000136616 -0.000109276 -5.46255e-005 -6.42159 81.2158 8.01779 -0.000218575 1.69148e-005 0.000212152 0.000901572 -0.000184793 -0.00021855 -59.9282 75.5373 58.5147 9.22788 8.93215 0.765065 -167.277 84.4999 48.8109 179.155 -23.8403 -26.0873 7.21912e-006 -0.489248 2.90636e-005 -1.49759 11.1995 -0.147006 -6.888e-006 16.8281 3.11178e-006 -3.16263 0.167558 -6.06392 -72.0648 39.0385 39.3397 33.3638 2.10361 14.835 0.588946 0.308273 6.35287 -99.6409 81.413 100.35 -0.0181409 3.00763e-005 -0.117315 -0.124139 0.00241113 -0.799296 -79.8382 79.5773 80.5374 -0.000260651 -0.000218568 2.35697e-005 -0.000956233 0.000122994 -2.73216e-005 -66.7416 80.4058 67.2171 -0.000437137 1.48793e-005 -2.73212e-005 -0.000136611 -0.000109286 -5.46421e-005 -6.42159 81.2158 8.01779 -0.000218572 1.95768e-005 0.000212297 0.000901576 -0.000191248 -0.000218566 0.000811311 0.56661 89.91 -17.9367 -1.95172 -9.0389 9.06645e-007 2.46491 -1.45117e-008 35.3837 -2.3423 -1.9986 -1.07576e-007 -3.5825 -1.16829e-007 -68.4519 -3.76479 1.07383 -35.4947 1.44847e-007 2.83273e-007 -180 -0.566579 -90.09 -16.8877 -2.94308 -3.64415 -6.45851e-007 -2.13396 -1.95193e-008 32.6303 -3.27826 -1.86925 2.60829e-007 -4.98169 -3.18705e-007 -65.6775 -3.3711 1.0664 -35.4947 -2.24122e-007 -2.15108e-008 
-342.61 175.428 -367.076 85.03 -87.5364 87.6437 -180 4.29621e-031 -90 0.155111 -0.160819 -0.181268 0.30971 -0.322564 -0.362101 0.30971 -0.322127 -0.362104 -2.93262 -1.62158 4.69312 15.5573 -0.533436 -1.46918 120.092 75.5343 58.4939 15.1465 3.913 -1.52219 -167.277 84.4999 48.8109 174.497 -15.164 -31.8278 3.99466e-006 12.58 3.03948e-005 -1.99389 2.12655 2.87043 4.12397e-007 3.21252 3.49544e-007 -2.01188 -0.000659143 0.0375479 -72.0648 39.0385 39.3397 33.3638 2.10362 14.835 0.588947 0.308273 6.35287 -99.6409 81.413 100.35 -0.0181409 2.77903e-005 -0.117315 -0.124139 0.00241114 -0.799296 -79.8382 79.5773 80.5374 -0.000225786 -0.000220911 2.2206e-005 -0.000956239 0.00012291 -2.7305e-005 -66.7416 80.4058 67.2171 -0.000437142 1.59569e-005 -2.73089e-005 -0.000136616 -0.000109276 -5.46255e-005 -6.42159 81.2158 8.01779 -0.000218575 1.69148e-005 0.000212152 0.000901572 -0.000184793 -0.00021855 -59.9282 75.5373 58.5147 9.07614 8.20441 0.639356 -167.277 84.4999 48.8109 178.3 -23.6539 -26.3801 7.21669e-006 -0.484453 2.90636e-005 -1.49077 11.3756 -0.150823 -6.90301e-006 17.0924 3.11616e-006 -2.9546 0.151053 -5.8521 -72.0648 39.0385 39.3397 33.3638 2.10361 14.835 0.588946 0.308273 6.35287 -99.6409 81.413 100.35 -0.0181409 3.00763e-005 -0.117315 -0.124139 0.00241113 -0.799296 -79.8382 79.5773 80.5374 -0.000260651 -0.000218568 2.35697e-005 -0.000956233 0.000122994 -2.73216e-005 -66.7416 80.4058 67.2171 -0.000437137 1.48793e-005 -2.73212e-005 -0.000136611 -0.000109286 -5.46421e-005 -6.42159 81.2158 8.01779 -0.000218572 1.95768e-005 0.000212297 0.000901576 -0.000191248 -0.000218566 0.000811311 0.56661 89.91 -17.9065 -1.94502 -8.99367 9.06642e-007 2.45239 -1.45115e-008 35.3325 -2.40453 -1.99812 -1.07767e-007 -3.6758 -1.16841e-007 -68.4183 -3.79367 1.09182 -35.4947 1.65273e-007 2.72758e-007 -180 -0.566579 -90.09 -16.8905 -2.90836 -3.81259 -6.45799e-007 -1.98065 -1.95174e-008 32.5828 -3.24371 -1.54201 2.61124e-007 -4.92886 -3.18679e-007 -65.6154 -3.20743 0.978374 -35.4947 -2.18657e-007 -2.25953e-008 
-342.578 175.416 -367.103 85.462 -87.5643 88.0621 -180 4.29621e-031 -90 0.170124 -0.146077 -0.195141 0.339746 -0.293169 -0.389849 0.339746 -0.292732 -0.389852 -3.15078 -1.69383 4.7396 15.7325 -0.576866 -1.3438 120.092 75.5343 58.4939 15.4067 3.14739 -1.70333 -167.277 84.4999 48.8109 173.848 -14.6665 -31.3694 3.88801e-006 12.7761 3.04182e-005 -1.97087 2.03665 2.73014 4.13221e-007 3.07758 3.49499e-007 -1.93909 -0.00248959 0.147117 -72.0648 39.0385 39.3397 33.3638 2.10362 14.835 0.588947 0.308273 6.35287 -99.6409 81.413 100.35 -0.0181409 2.77903e-005 -0.117315 -0.124139 0.00241114 -0.799296 -79.8382 79.5773 80.5374 -0.000225786 -0.000220911 2.2206e-005 -0.000956239 0.00012291 -2.7305e-005 -66.7416 80.4058 67.2171 -0.000437142 1.59569e-005 -2.73089e-005 -0.000136616 -0.000109276 -5.46255e-005 -6.42159 81.2158 8.01779 -0.000218575 1.69148e-005 0.000212152 0.000901572 -0.000184793 -0.00021855 -59.9282 75.5373 58.5147 9.18395 7.81039 0.52604 -167.277 84.4999 48.8109 178.089 -23.5122 -26.1355 7.21402e-006 -0.479206 2.90635e-005 -1.48933 11.4128 -0.151635 -6.90619e-006 17.1483 3.1171e-006 -2.93507 0.154241 -6.01507 -72.0648 39.0385 39.3397 33.3638 2.10361 14.835 0.588946 0.308273 6.35287 -99.6409 81.413 100.35 -0.0181409 3.00763e-005 -0.117315 -0.124139 0.00241113 -0.799296 -79.8382 79.5773 80.5374 -0.000260651 -0.000218568 2.35697e-005 -0.000956233 0.000122994 -2.73216e-005 -66.7416 80.4058 67.2171 -0.000437137 1.48793e-005 -2.73212e-005 -0.000136611 -0.000109286 -5.46421e-005 -6.42159 81.2158 8.01779 -0.000218572 1.95768e-005 0.000212297 0.000901576 -0.000191248 -0.000218566 0.000811311 0.56661 89.91 -17.9617 -2.03889 -9.03493 9.06611e-007 2.32837 -1.45102e-008 35.4756 -2.32463 -1.95778 -1.07522e-007 -3.55605 -1.16826e-007 -68.4313 -3.53932 0.955005 -35.4947 1.8744e-007 2.59351e-007 -180 -0.566579 -90.09 -16.9592 -2.88578 -3.84001 -6.45783e-007 -1.93421 -1.95169e-008 32.7353 -3.24851 -1.534 2.61082e-007 -4.93634 -3.18683e-007 -65.7145 -3.35283 1.05334 -35.4947 -2.14345e-007 -2.39206e-008 
